# xmcd
#
# Track frame offsets: 
#        150
#        13054
#        27146
#        42873
#        53533
#        75670
#        91827
#        105421
#        121333
#        138643
#        170122
#        186489
#
# Disc length: 2670 seconds
#
# Revision: 0
# Processed by: cddbd v1.4PL0 Copyright (c) Steve Scherf et al.
# Submitted via: ExactAudioCopy v0.95a4
#
DISCID=960a6c0c
DTITLE=Mary-Ann Brandon - If Love Hurts
DYEAR=1900
DGENRE=
TTITLE0=Something Out Of Nothing
TTITLE1=Too Much Fun
TTITLE2=I Want To (Do Everything For You)
TTITLE3=If Love Hurts (You're Not Doing It Right)
TTITLE4=Time To Kill
TTITLE5=Take It Like A Man
TTITLE6=Chop That Wood
TTITLE7=Heat Up The Oven
TTITLE8=I'm A Hog For You, Baby
TTITLE9=There But For The Grace Of God
TTITLE10=Getting Out Of Rockwood
TTITLE11=Rock My World
EXTD=
EXTT0=
EXTT1=
EXTT2=
EXTT3=
EXTT4=
EXTT5=
EXTT6=
EXTT7=
EXTT8=
EXTT9=
EXTT10=
EXTT11=
PLAYORDER=
